<svg xmlns="http://www.w3.org/2000/svg" version="1.1" xmlns:xlink="http://www.w3.org/1999/xlink" width="500" height="500"><svg xmlns="http://www.w3.org/2000/svg" xmlns:xlink="http://www.w3.org/1999/xlink" width="500" zoomAndPan="magnify" viewBox="0 0 375 374.999991" height="500" preserveAspectRatio="xMidYMid meet" version="1.2"><defs></defs><g id="SvgjsG1005"><rect x="0" width="375" y="0" height="374.999991" style="fill:#ffffff;fill-opacity:1;stroke:none;"></rect><rect x="0" width="375" y="0" height="374.999991" style="fill:#f5f5f4;fill-opacity:1;stroke:none;"></rect><g style="fill:#0c0a09;fill-opacity:1;"><g transform="translate(41.152979, 237.011389)"><path style="stroke:none" d="M 80.234375 -26.15625 L 119.15625 -110.921875 L 152.890625 -110.921875 L 152.890625 -108.015625 L 151.765625 -108.015625 C 146.597656 -108.015625 142.773438 -107.097656 140.296875 -105.265625 C 137.828125 -103.429688 136.59375 -99.929688 136.59375 -94.765625 L 136.59375 -15.984375 C 136.59375 -11.242188 137.773438 -7.878906 140.140625 -5.890625 C 142.503906 -3.898438 146.488281 -2.90625 152.09375 -2.90625 L 152.890625 -2.90625 L 152.890625 0 L 102.84375 0 L 102.84375 -2.90625 L 104.296875 -2.90625 C 109.359375 -2.90625 113.097656 -3.898438 115.515625 -5.890625 C 117.941406 -7.878906 119.15625 -11.351562 119.15625 -16.3125 L 119.15625 -93 L 118.828125 -93 L 76.203125 0 L 73.296875 0 L 30.671875 -93 L 30.359375 -93 L 30.359375 -16.140625 C 30.359375 -10.972656 31.539062 -7.5 33.90625 -5.71875 C 36.269531 -3.945312 40.253906 -3.007812 45.859375 -2.90625 L 45.859375 0 L 6.9375 0 L 6.9375 -2.90625 L 7.90625 -2.90625 C 13.070312 -2.90625 16.894531 -3.847656 19.375 -5.734375 C 21.851562 -7.617188 23.09375 -11.144531 23.09375 -16.3125 L 23.09375 -92.03125 C 23.09375 -97.082031 21.800781 -100.875 19.21875 -103.40625 C 16.632812 -105.9375 12.539062 -107.472656 6.9375 -108.015625 L 6.9375 -110.921875 L 40.84375 -110.921875 Z M 80.234375 -26.15625 "></path></g></g><g style="fill:#0c0a09;fill-opacity:1;"><g transform="translate(200.979247, 237.011389)"><path style="stroke:none" d="M 57.15625 -108.015625 C 51.238281 -108.015625 46.988281 -107.148438 44.40625 -105.421875 C 41.820312 -103.703125 40.53125 -100.097656 40.53125 -94.609375 L 40.53125 -57 C 50.863281 -65.5 60.65625 -74.210938 69.90625 -83.140625 C 79.164062 -92.078125 83.796875 -98.695312 83.796875 -103 C 83.796875 -104.832031 82.960938 -106.097656 81.296875 -106.796875 C 79.628906 -107.492188 77.179688 -107.898438 73.953125 -108.015625 L 73.953125 -110.921875 L 114.625 -110.921875 L 114.625 -108.015625 L 113.34375 -108.015625 C 110.113281 -107.796875 107.046875 -106.984375 104.140625 -105.578125 C 101.234375 -104.179688 98.269531 -102.085938 95.25 -99.296875 C 93.53125 -97.679688 90.519531 -94.613281 86.21875 -90.09375 C 80.832031 -84.601562 76.09375 -79.835938 72 -75.796875 C 67.914062 -71.765625 62.96875 -67.21875 57.15625 -62.15625 L 98.640625 -21.15625 C 104.023438 -15.875 108.382812 -11.96875 111.71875 -9.4375 C 115.0625 -6.914062 118.210938 -5.195312 121.171875 -4.28125 C 124.128906 -3.363281 127.757812 -2.90625 132.0625 -2.90625 L 132.0625 0 L 74.921875 0 L 74.921875 -2.90625 C 77.816406 -2.90625 80.148438 -3.363281 81.921875 -4.28125 C 83.703125 -5.195312 84.59375 -6.625 84.59375 -8.5625 C 84.59375 -9.851562 84.242188 -10.984375 83.546875 -11.953125 C 82.847656 -12.921875 81.476562 -14.425781 79.4375 -16.46875 L 40.53125 -54.890625 L 40.53125 -16.140625 C 40.53125 -11.296875 41.738281 -7.90625 44.15625 -5.96875 C 46.582031 -4.03125 50.644531 -3.007812 56.34375 -2.90625 L 56.34375 0 L 6.453125 0 L 6.453125 -2.90625 C 12.703125 -3.007812 17.035156 -3.976562 19.453125 -5.8125 C 21.878906 -7.644531 23.09375 -11.195312 23.09375 -16.46875 L 23.09375 -94.609375 C 23.09375 -99.878906 21.769531 -103.429688 19.125 -105.265625 C 16.488281 -107.097656 12.265625 -108.015625 6.453125 -108.015625 L 6.453125 -110.921875 L 57.15625 -110.921875 Z M 57.15625 -108.015625 "></path></g></g></g></svg><style>@media (prefers-color-scheme: light) { :root { filter: none; } }
@media (prefers-color-scheme: dark) { :root { filter: none; } }
</style></svg>